<svg width="17" height="17" viewBox="0 0 17 17" fill="none" xmlns="http://www.w3.org/2000/svg">
<path d="M3.81947 14.5856C4.2761 14.9293 4.96688 15.1714 5.975 15.0485V16.1571C5.975 16.1657 5.97426 16.1732 5.97321 16.1794C5.96046 16.1804 5.93994 16.1805 5.91009 16.1764C2.70592 15.0963 0.4 12.0673 0.4 8.5C0.4 4.02681 4.02748 0.4 8.5 0.4C12.9732 0.4 16.6 4.02679 16.6 8.5C16.6 12.0667 14.2959 15.0955 11.0936 16.1763C11.0622 16.1811 11.0404 16.1813 11.0268 16.1804C11.0257 16.174 11.025 16.1661 11.025 16.1571V13.8245C11.025 13.3153 10.9218 12.8885 10.7564 12.5504C11.5269 12.4071 12.3102 12.1404 12.949 11.6057C13.7948 10.8978 14.323 9.77646 14.323 8.05658C14.323 7.117 14.0166 6.32453 13.5004 5.68728C13.6239 5.25671 13.7485 4.42104 13.3366 3.37841L13.267 3.20218L13.0866 3.14441L12.9646 3.52538C13.0866 3.14441 13.0862 3.14429 13.0858 3.14417L13.085 3.14392L13.0834 3.1434L13.0799 3.14233L13.0721 3.14005C13.0665 3.13846 13.0602 3.13676 13.0531 3.135C13.039 3.13147 13.0219 3.1277 13.0019 3.12408C12.9618 3.11684 12.9099 3.11024 12.8462 3.10733C12.7184 3.1015 12.5447 3.11057 12.3229 3.15737C11.9071 3.24511 11.3253 3.46471 10.5577 3.96399C9.89394 3.79692 9.19461 3.71386 8.50196 3.71044L8.49804 3.71046C7.80551 3.71386 7.10682 3.79689 6.44422 3.96395C5.67595 3.46463 5.09343 3.24506 4.67717 3.15735C4.45514 3.11056 4.28129 3.1015 4.1534 3.10733C4.08959 3.11024 4.03774 3.11683 3.99759 3.12406C3.97753 3.12768 3.96046 3.13144 3.94635 3.13495C3.9393 3.13671 3.93299 3.13841 3.92742 3.13999L3.91963 3.14227L3.91615 3.14334L3.91451 3.14385L3.91372 3.1441C3.91333 3.14422 3.91295 3.14434 4.03467 3.52538L3.91295 3.14434L3.73224 3.20207L3.6626 3.37853C3.25103 4.42133 3.37632 5.25723 3.49973 5.6876C2.98555 6.32396 2.67629 7.11555 2.67629 8.05658C2.67629 9.77237 3.20371 10.8934 4.04705 11.6032C4.68594 12.141 5.46984 12.4107 6.24057 12.5563C6.16247 12.7192 6.09912 12.9022 6.0546 13.1044C5.84744 13.1761 5.58135 13.2353 5.3101 13.2111C4.97364 13.181 4.59437 13.0215 4.2826 12.4888L4.28229 12.4883L4.27577 12.4769C4.27049 12.4679 4.26333 12.4559 4.2543 12.4414C4.23627 12.4123 4.2106 12.3729 4.17732 12.3264C4.11114 12.2339 4.01283 12.1105 3.88224 11.9842C3.6238 11.7345 3.2142 11.451 2.66069 11.4124L2.64953 11.4116L2.63834 11.4115L2.63287 11.8115C2.63834 11.4115 2.63821 11.4115 2.63808 11.4115L2.63781 11.4115L2.6372 11.4115L2.63574 11.4115L2.6319 11.4114L2.62063 11.4115C2.61162 11.4115 2.59956 11.4117 2.58511 11.4122C2.55657 11.4132 2.51689 11.4154 2.47179 11.4203C2.39749 11.4284 2.24777 11.4495 2.11662 11.524C2.04679 11.5636 1.9454 11.6392 1.88721 11.7723C1.82356 11.9178 1.84071 12.064 1.88892 12.1791C1.96864 12.3694 2.15206 12.5238 2.34823 12.658L2.37496 12.6763L2.39877 12.6874C2.39949 12.6878 2.40043 12.6883 2.40159 12.689C2.40823 12.6928 2.42198 12.7009 2.4415 12.7142C2.48049 12.7409 2.54281 12.7885 2.61798 12.8638C2.76644 13.0126 2.97056 13.2752 3.14312 13.7107C3.14511 13.7163 3.14759 13.7231 3.15057 13.7309C3.15726 13.7485 3.16655 13.7715 3.17883 13.799C3.20334 13.8538 3.24001 13.9272 3.29207 14.0113C3.39608 14.1793 3.56327 14.3928 3.81947 14.5856Z" stroke="black" stroke-width="0.8"/>
</svg>
