<svg width="17" height="17" viewBox="0 0 17 17" fill="none" xmlns="http://www.w3.org/2000/svg">
<path d="M16.6 9.82388V16.6H13.8668V11.0507C13.8668 10.0757 13.5745 9.31656 13.0911 8.80198C12.6082 8.28799 11.9617 8.04814 11.3189 8.0685C10.0169 8.10975 8.79629 9.19971 8.79629 11.0507V16.6H6.07658V6.06667H8.79558V7.19313L9.54749 7.38328C10.1862 6.20128 11.9398 5.49617 13.5868 5.77924C14.3923 5.91768 15.1391 6.2902 15.6848 6.93102C16.2287 7.56963 16.6 8.50653 16.6 9.82388ZM3.1275 2.47917C3.1275 3.2395 2.51731 3.85 1.77083 3.85C1.02436 3.85 0.414167 3.2395 0.414167 2.47917C0.414167 1.71944 1.02446 1.10834 1.77083 1.10834C2.5172 1.10834 3.1275 1.71944 3.1275 2.47917ZM0.4 16.6V6.06667H3.14167V16.6H0.4Z" stroke="black" stroke-width="0.8"/>
</svg>
