<svg width="13" height="17" viewBox="0 0 13 17" fill="none" xmlns="http://www.w3.org/2000/svg">
<path fill-rule="evenodd" clip-rule="evenodd" d="M6.49998 7.08333C5.71798 7.08333 5.08331 6.44867 5.08331 5.66667C5.08331 4.88467 5.71798 4.25 6.49998 4.25C7.28198 4.25 7.91665 4.88467 7.91665 5.66667C7.91665 6.44867 7.28198 7.08333 6.49998 7.08333ZM6.49998 3.54167C5.32627 3.54167 4.37498 4.49296 4.37498 5.66667C4.37498 6.84037 5.32627 7.79167 6.49998 7.79167C7.67369 7.79167 8.62498 6.84037 8.62498 5.66667C8.62498 4.49296 7.67369 3.54167 6.49998 3.54167ZM1.54165 5.38475C1.54165 2.89354 3.8586 0.708333 6.49998 0.708333C9.14135 0.708333 11.4583 2.89354 11.4583 5.38475C11.4583 7.83204 9.64285 10.7277 6.49998 15.6747C3.32027 10.6647 1.54165 7.83204 1.54165 5.38475ZM6.49998 0C3.5264 0 0.833313 2.41046 0.833313 5.38475C0.833313 8.35833 3.29052 11.9085 6.49998 17C9.70944 11.9085 12.1666 8.35833 12.1666 5.38475C12.1666 2.41046 9.47427 0 6.49998 0" fill="black"/>
</svg>
