<svg width="17" height="13" viewBox="0 0 17 13" fill="none" xmlns="http://www.w3.org/2000/svg">
<path fill-rule="evenodd" clip-rule="evenodd" d="M15.5833 4.89917L14.1667 5.62167V10.75C13.4534 12.1957 10.1957 12.875 8.14583 12.875C5.89687 12.875 2.91196 12.1709 2.125 10.75V5.22783L0 3.88483L8.5 0.125L16.2917 4.53862V10.75L17 12.875H14.875L15.5833 10.75V4.89917ZM2.83333 5.67479V10.5432C3.51192 11.4498 5.82037 12.1667 8.14583 12.1667C10.1957 12.1667 12.813 11.4874 13.4583 10.5595V5.98221L7.84621 8.84317L2.83333 5.67479ZM1.50096 3.99533L7.88375 8.02858L14.7964 4.50533L8.46104 0.916917L1.50096 3.99533Z" fill="black"/>
</svg>
