<svg width="17" height="15" viewBox="0 0 17 15" fill="none" xmlns="http://www.w3.org/2000/svg">
<path d="M5.17117 10.9959C4.04541 10.975 3.06614 10.3527 2.54344 9.43669C2.90374 9.43864 3.25422 9.39045 3.58548 9.30059L3.55942 8.52235C2.2952 8.26876 1.36459 7.25946 1.13662 6.08656C1.48819 6.20486 1.86222 6.27442 2.24952 6.28691L3.64713 6.332L2.48479 5.55463C1.27857 4.74792 0.830598 3.25074 1.28563 1.95846C3.06087 3.88466 5.55985 5.1338 8.35177 5.27371L8.88188 5.30027L8.76134 4.78337C8.31102 2.85224 9.77657 0.992331 11.7697 0.992331C12.658 0.992331 13.461 1.36714 14.0236 1.96734L14.1752 2.1291L14.3927 2.08625C14.807 2.00466 15.2088 1.88866 15.5951 1.74143C15.3696 2.01548 15.0976 2.25024 14.7913 2.43366L15.0443 3.17401C15.3049 3.14287 15.5613 3.09845 15.8129 3.04128C15.5681 3.28376 15.3047 3.50736 15.0254 3.70918L14.8503 3.83566L14.86 4.05142C15.0727 8.77202 11.5531 14.0077 5.3465 14.0077C4.02416 14.0077 2.7657 13.7365 1.62162 13.2483C2.99253 13.1028 4.30421 12.5781 5.41056 11.7106L6.29551 11.0168L5.17117 10.9959Z" stroke="black" stroke-width="0.8"/>
</svg>
